<?xml version="1.0" encoding="UTF-8"?>
<svg width="22px" height="22px" viewBox="0 0 22 22" version="1.1" xmlns="http://www.w3.org/2000/svg" xmlns:xlink="http://www.w3.org/1999/xlink">
    <!-- Generator: Sketch 50.2 (55047) - http://www.bohemiancoding.com/sketch -->
    <title>icon/menu</title>
    <desc>Created with Sketch.</desc>
    <defs></defs>
    <g id="Mobile-menu-" stroke="none" stroke-width="1" fill="none" fill-rule="evenodd">
        <g id="Mobile-menu-1" transform="translate(-288.000000, -10.000000)" fill="#0099FF">
            <g id="icon/close-menu" transform="translate(288.000000, 10.000000)">
                <path d="M23,9 L-1,9 C-2.104,9 -3,9.896 -3,11 C-3,12.104 -2.104,13 -1,13 L23,13 C24.104,13 25,12.104 25,11 C25,9.896 24.104,9 23,9 Z" id="Path" transform="translate(11.000000, 11.000000) rotate(-315.000000) translate(-11.000000, -11.000000) "></path>
                <path d="M23,9 L-1,9 C-2.104,9 -3,9.896 -3,11 C-3,12.104 -2.104,13 -1,13 L23,13 C24.104,13 25,12.104 25,11 C25,9.896 24.104,9 23,9 Z" id="Path-Copy" transform="translate(11.000000, 11.000000) rotate(-225.000000) translate(-11.000000, -11.000000) "></path>
            </g>
        </g>
    </g>
</svg>